<?xml version="1.0" encoding="UTF-8" standalone="no"?><!-- Generator: Gravit.io --><svg xmlns="http://www.w3.org/2000/svg" xmlns:xlink="http://www.w3.org/1999/xlink" style="isolation:isolate" viewBox="0 0 24 24" width="24pt" height="24pt"><defs><clipPath id="_clipPath_ISlv5o2wWFz86Nf1fkqI48bdHeRCCelu"><rect width="24" height="24"/></clipPath></defs><g clip-path="url(#_clipPath_ISlv5o2wWFz86Nf1fkqI48bdHeRCCelu)"><linearGradient id="_lgradient_2" x1="0.18291666666666667" y1="-0.2133333333333335" x2="0.7662499999999999" y2="1.0991666666666666" gradientTransform="matrix(24,0,0,24,0,0)" gradientUnits="userSpaceOnUse"><stop offset="0%" stop-opacity="1" style="stop-color:rgb(179,255,177)"/><stop offset="100%" stop-opacity="1" style="stop-color:rgb(61,213,194)"/></linearGradient><path d=" M 0 0 L 24 0 L 24 24 L 0 24 L 0 0 Z " fill="url(#_lgradient_2)"/><path d=" M 5.26 10.4 L 14.16 10.4 L 14.16 12.4 L 19.26 9 L 14.16 5.4 L 14.16 7.4 L 8.26 7.4 M 19.26 14.4 L 10.36 14.4 L 10.36 12.4 L 5.26 15.84 L 10.36 19.4 L 10.36 17.4 L 16.26 17.4" fill="none" vector-effect="non-scaling-stroke" stroke-width="1" stroke="rgb(255,255,255)" stroke-linejoin="round" stroke-linecap="round" stroke-miterlimit="4"/><g style="mix-blend-mode:normal;" opacity="0.43"><g clip-path="url(#_clipPath_4YO7rM4WHm1ozvs9vvxIVpQkookyW0Lm)"><text transform="matrix(1,0,0,1,0,24.452)" style="font-family:'Noto Sans';font-weight:700;font-size:36px;font-style:normal;fill:#009688;stroke:none;">V</text></g><defs><clipPath id="_clipPath_4YO7rM4WHm1ozvs9vvxIVpQkookyW0Lm"><rect x="0" y="0" width="26" height="49.032" transform="matrix(1,0,0,1,0,-14.032)"/></clipPath></defs></g></g></svg>